<svg width="180" height="180" viewBox="0 0 180 180" fill="none" xmlns="http://www.w3.org/2000/svg">
  <rect width="180" height="180" rx="44" fill="#293246"/>
  <rect x="16" y="16" width="148" height="148" rx="34" stroke="#D6BB83" stroke-opacity="0.45" stroke-width="3"/>
  <circle cx="90" cy="90" r="42" fill="#D6BB83" fill-opacity="0.16"/>
  <path d="M62 113V67H82.6937C91.8293 67 97.5 71.8574 97.5 79.6381C97.5 85.0571 94.5516 88.8996 89.5804 90.7342L100 113H87.7945L78.4135 93.488H72.001V113H62ZM72.001 85.0724H81.2164C85.9094 85.0724 88.7886 82.9838 88.7886 79.4691C88.7886 75.8784 85.9094 73.8241 81.2164 73.8241H72.001V85.0724Z" fill="#F6F1E5"/>
  <path d="M107 112.5V66.5H130.5V74.6429H117.25V84.744H129.867V92.6027H117.25V104.357H130.5V112.5H107Z" fill="#F6F1E5"/>
</svg>
