<svg xmlns="http://www.w3.org/2000/svg" id="Layer_1" viewBox="0 0 267.11 98.07"><defs><style>.cls-1{fill:#fff;}</style></defs><polygon class="cls-1" points="50.16 .47 50.16 1.43 29.74 1.43 29.74 63.15 20.59 63.15 20.59 1.43 0 1.43 0 .47 20.59 .47 20.59 .47 29.74 .47 29.74 .47 50.16 .47"></polygon><path class="cls-1" d="M112.76,63.19h-11.24l-32.82-30.41v30.38h-9.15V.47h9.15s28.11.01,28.11.01c0,0,15.27.42,15.27,15.8,0,9.6-7.9,15.81-14.32,15.81h-19.07l34.07,31.09ZM68.7,31.14h23.61c4.76,0,10.31-7.44,10.31-14.85s-3.52-14.84-16.83-14.84h-17.08v29.69Z"></path><path class="cls-1" d="M184.71,31.64c0,17.48-14.17,31.64-31.65,31.64s-31.65-14.16-31.65-31.64S135.57,0,153.05,0s31.65,14.16,31.65,31.64M173.98,24.24c-5.73-16.18-19.73-25.74-31.29-21.66-11.56,4.09-16.28,20.28-10.56,36.45,5.73,16.18,19.73,25.74,31.29,21.66,11.56-4.09,16.28-20.28,10.56-36.45"></path><rect class="cls-1" x="196.27" y=".47" width="9.15" height="62.68"></rect><path class="cls-1" d="M258,22.8c1.16-6.58-1.71-13.67-7.02-17.74-5.3-4.07-12.78-5.04-19.02-2.63-2.05.79-4.01,1.95-5.46,3.6-1.45,1.65-2.36,3.85-2.2,6.04.18,2.38,1.59,4.53,3.43,6.05,1.84,1.52,4.07,2.46,6.33,3.24,5.74,1.97,11.8,2.94,17.48,5.11,5.67,2.16,11.17,5.81,13.62,11.36,2.42,5.48,1.4,12.17-2.06,17.05-3.46,4.89-9.1,8.01-15.01,9.01-5.91.99-12.04-.03-17.61-2.24-3.52-1.4-6.9-3.32-9.5-6.08-2.6-2.75-4.37-6.42-4.34-10.2,2.97-.35,5.94-.71,8.91-1.06-.26,6.28,3.21,12.49,8.51,15.86s12.21,3.92,18.11,1.75c2.19-.8,4.28-1.99,5.82-3.75,2.7-3.09,3.31-7.58,2.47-11.59-.44-2.12-1.29-4.2-2.78-5.77-1.44-1.52-3.39-2.44-5.35-3.19-4.52-1.72-9.29-2.64-13.93-3.98-4.64-1.34-9.27-3.16-12.89-6.36s-6.08-8.01-5.47-12.8c.47-3.59,2.59-6.68,5.25-9.04,1.38-1.22,2.9-2.28,4.5-3.19,1.62-.92,3.39-1.41,5.22-1.75,7.64-1.43,15.63,1.06,22,5.26,2.94,1.93,5.68,4.28,7.59,7.23,1.91,2.96,2.94,6.58,2.33,10.05-2.98-.08-5.96-.16-8.94-.24"></path><rect class="cls-1" x="52.5" y="84.76" width="2.22" height="13.15"></rect><path class="cls-1" d="M64.79,92.49v5.42h-2.11v-10.01h2.11v1.83c.34-.61.8-1.1,1.4-1.45.6-.35,1.24-.53,1.93-.53,1.13,0,2.04.34,2.74,1.04.7.69,1.05,1.69,1.05,2.99v6.14h-2.11v-5.5c0-1.84-.77-2.76-2.3-2.76-.73,0-1.36.24-1.9.72-.54.48-.81,1.19-.81,2.12"></path><polygon class="cls-1" points="82.09 97.92 78.06 87.9 80.25 87.9 83.29 95.47 86.34 87.9 88.53 87.9 84.5 97.92 82.09 97.92"></polygon><path class="cls-1" d="M104.22,93.83h-7.85c.05.73.38,1.31,1,1.76.62.44,1.32.67,2.11.67,1.25,0,2.21-.4,2.86-1.19l1.2,1.32c-1.08,1.12-2.48,1.68-4.21,1.68-1.41,0-2.6-.47-3.59-1.4-.98-.94-1.48-2.19-1.48-3.77s.5-2.82,1.5-3.75c1-.93,2.19-1.39,3.55-1.39s2.52.41,3.47,1.23c.95.82,1.43,1.95,1.43,3.4v1.45ZM96.37,92.17h5.74c0-.84-.26-1.49-.79-1.94-.53-.45-1.18-.68-1.95-.68s-1.47.24-2.08.71c-.62.47-.92,1.11-.92,1.91"></path><path class="cls-1" d="M118.38,94.92c0,.95-.34,1.72-1.04,2.29-.69.57-1.57.86-2.65.86-.73,0-1.49-.13-2.27-.39-.78-.27-1.48-.63-2.08-1.11l1.02-1.64c1.17.88,2.3,1.32,3.39,1.32.48,0,.85-.11,1.13-.33.28-.22.42-.5.42-.84,0-.5-.67-.95-2-1.35-.1-.04-.18-.06-.23-.07-2.08-.57-3.12-1.51-3.12-2.82,0-.93.36-1.67,1.08-2.23.72-.56,1.66-.84,2.81-.84s2.25.34,3.27,1.02l-.79,1.56c-.82-.54-1.7-.81-2.65-.81-.5,0-.91.09-1.22.27-.31.18-.47.46-.47.82,0,.33.16.56.49.71.23.12.54.22.95.32.41.1.77.2,1.08.3.31.1.62.21.91.34.29.12.61.3.95.53.68.45,1.02,1.15,1.02,2.11"></path><path class="cls-1" d="M128.07,89.6v5.08c0,.48.12.86.38,1.14.25.28.6.42,1.05.42s.88-.22,1.3-.66l.87,1.49c-.74.67-1.56,1-2.46,1s-1.66-.31-2.3-.93c-.63-.62-.95-1.46-.95-2.51v-5.02h-1.26v-1.69h1.26v-3.14h2.11v3.14h2.64v1.69h-2.64Z"></path><path class="cls-1" d="M140.15,92.49v5.42h-2.11v-10.01h2.11v1.83c.3-.61.75-1.1,1.36-1.45.61-.35,1.26-.53,1.97-.53,1.58,0,2.65.65,3.22,1.96.99-1.3,2.23-1.96,3.71-1.96,1.13,0,2.04.34,2.74,1.04.69.69,1.04,1.69,1.04,2.99v6.14h-2.11v-5.5c0-1.84-.77-2.76-2.3-2.76-.72,0-1.34.23-1.87.69-.53.46-.81,1.13-.84,2v5.57h-2.11v-5.5c0-.95-.17-1.65-.51-2.1-.34-.45-.87-.67-1.6-.67s-1.36.24-1.9.72c-.54.48-.81,1.19-.81,2.12"></path><path class="cls-1" d="M171.15,93.83h-7.85c.05.73.38,1.31,1,1.76.62.44,1.32.67,2.11.67,1.25,0,2.21-.4,2.86-1.19l1.2,1.32c-1.08,1.12-2.49,1.68-4.22,1.68-1.4,0-2.6-.47-3.59-1.4-.98-.94-1.48-2.19-1.48-3.77s.5-2.82,1.51-3.75c1-.93,2.19-1.39,3.55-1.39s2.52.41,3.47,1.23c.95.82,1.43,1.95,1.43,3.4v1.45ZM163.3,92.17h5.74c0-.84-.26-1.49-.79-1.94-.53-.45-1.18-.68-1.95-.68s-1.47.24-2.08.71c-.62.47-.92,1.11-.92,1.91"></path><path class="cls-1" d="M180.27,92.49v5.42h-2.11v-10.01h2.11v1.83c.34-.61.81-1.1,1.4-1.45.6-.35,1.24-.53,1.93-.53,1.13,0,2.04.34,2.74,1.04.7.69,1.05,1.69,1.05,2.99v6.14h-2.11v-5.5c0-1.84-.77-2.76-2.3-2.76-.73,0-1.36.24-1.9.72-.54.48-.81,1.19-.81,2.12"></path><path class="cls-1" d="M197.5,89.6v5.08c0,.48.13.86.38,1.14.25.28.6.42,1.05.42s.88-.22,1.3-.66l.87,1.49c-.74.67-1.56,1-2.46,1s-1.66-.31-2.3-.93c-.63-.62-.95-1.46-.95-2.51v-5.02h-1.26v-1.69h1.26v-3.14h2.11v3.14h2.64v1.69h-2.64Z"></path><path class="cls-1" d="M214.6,94.92c0,.95-.34,1.72-1.04,2.29-.69.57-1.57.86-2.65.86-.73,0-1.49-.13-2.27-.39-.79-.27-1.48-.63-2.08-1.11l1.02-1.64c1.17.88,2.3,1.32,3.39,1.32.48,0,.85-.11,1.13-.33.28-.22.42-.5.42-.84,0-.5-.67-.95-2-1.35-.1-.04-.18-.06-.23-.07-2.08-.57-3.12-1.51-3.12-2.82,0-.93.36-1.67,1.08-2.23.72-.56,1.66-.84,2.81-.84s2.25.34,3.27,1.02l-.79,1.56c-.82-.54-1.7-.81-2.65-.81-.5,0-.91.09-1.22.27-.31.18-.47.46-.47.82,0,.33.16.56.49.71.23.12.54.22.95.32.41.1.77.2,1.08.3.31.1.62.21.91.34.3.12.61.3.95.53.68.45,1.02,1.15,1.02,2.11"></path></svg>
